<?xml version="1.0" encoding="UTF-8" standalone="no"?>
<!-- Created with Inkscape (http://www.inkscape.org/) -->

<svg
   width="100pt"
   height="100pt"
   viewBox="0 0 35.277777 35.277777"
   version="1.1"
   id="svg5"
   inkscape:version="1.2.2 (732a01da63, 2022-12-09)"
   sodipodi:docname="icons.svg"
   inkscape:export-filename="..\src\renderer\src\assets\icons\home.svg"
   inkscape:export-xdpi="92.160004"
   inkscape:export-ydpi="92.160004"
   xmlns:inkscape="http://www.inkscape.org/namespaces/inkscape"
   xmlns:sodipodi="http://sodipodi.sourceforge.net/DTD/sodipodi-0.dtd"
   xmlns="http://www.w3.org/2000/svg"
   xmlns:svg="http://www.w3.org/2000/svg">
  <sodipodi:namedview
     id="namedview7"
     pagecolor="#ffffff"
     bordercolor="#000000"
     borderopacity="0.25"
     inkscape:showpageshadow="2"
     inkscape:pageopacity="0.0"
     inkscape:pagecheckerboard="0"
     inkscape:deskcolor="#d1d1d1"
     inkscape:document-units="pt"
     showgrid="false"
     inkscape:zoom="2.8284271"
     inkscape:cx="-42.956737"
     inkscape:cy="75.483649"
     inkscape:window-width="3840"
     inkscape:window-height="2066"
     inkscape:window-x="-11"
     inkscape:window-y="-11"
     inkscape:window-maximized="1"
     inkscape:current-layer="layer1"
     showguides="false">
    <inkscape:grid
       type="xygrid"
       id="grid186"
       units="pt"
       spacingx="0.88194446"
       spacingy="0.88194446" />
  </sodipodi:namedview>
  <defs
     id="defs2" />
  <g
     inkscape:label="Layer 1"
     inkscape:groupmode="layer"
     id="layer1">
    <path
       id="path510-5"
       style="fill:#ff8080;stroke-width:2.64579"
       inkscape:transform-center-x="-8.8194441"
       inkscape:transform-center-y="8.8194441"
       d="m -14.992884,-12.346877 a 0.88194442,0.88194442 0 0 1 0.8816,0.8816 v 26.458852 a 0.88194442,0.88194442 0 0 1 -0.8816,0.8816 h 2.6448 2.64635 a 0.88194442,0.88194442 0 0 1 -0.8816,-0.8816 v -26.458852 a 0.88194442,0.88194442 0 0 1 0.8816,-0.8816 h -2.64945 z" />
    <path
       id="path510-5-0-2"
       style="fill:#ff8080;stroke-width:2.64579"
       inkscape:transform-center-x="0.00011341449"
       inkscape:transform-center-y="6.1736107"
       d="m -101.42723,-17.639923 -8.81549,0.0021 v -5.17e-4 h -8.81961 a 8.8192724,8.8192724 0 0 0 -8.8191,8.8190998 V 3.45e-4 h 3.52743 v -1.771468 -7.0481492 a 5.2915637,5.2915637 0 0 1 5.29167,-5.2916668 h 7.05538 1.76062 v 5.17e-4 l 1.77146,-5.17e-4 7.04815,-0.0015 a 5.2915637,5.2915637 0 0 1 5.29322,5.2901166 l 0.0016,7.0558994 5.16e-4,1.764234 3.527434,-0.001 -0.0021,-8.820133 a 8.8192724,8.8192724 0 0 0 -8.82118,-8.816551 z m 5.295797,17.640268 v 1.770951 7.048666 a 5.2915637,5.2915637 0 0 1 -5.291667,5.291666 h -7.0559 -1.76423 v 5.17e-4 l -1.76734,5.17e-4 -7.04866,0.0016 a 5.2915637,5.2915637 0 0 1 -5.2927,-5.290166 v -0.02067 a 0.88194442,0.88194442 0 0 1 0.87953,-0.866098 l 26.458851,5.17e-4 a 0.88194442,0.88194442 0 0 1 0.8816,0.8816 V 6.169994 3.528295 a 0.88194442,0.88194442 0 0 1 -0.8816,0.8816 L -123.4724,4.409378 a 0.88194442,0.88194442 0 0 1 -0.88057,-0.874882 l -5.1e-4,-1.766301 -5.2e-4,-1.764233 -3.52743,0.001 0.002,8.819616 a 8.8192724,8.8192724 0 0 0 8.82117,8.817067 l 8.82013,-0.0021 v -5.16e-4 h 8.81497 a 8.8192724,8.8192724 0 0 0 8.819101,-8.8191 V 3.12e-4 Z" />
    <path
       id="path510-8"
       style="fill:#ff8080;stroke-width:2.64579"
       inkscape:transform-center-x="-8.8194441"
       inkscape:transform-center-y="8.8194441"
       d="M 17.636133 0 A 8.8192724 8.8192724 0 0 0 11.400855 2.5843384 L 10.157003 3.8292237 L 10.155453 3.8276734 L 0.51469727 13.468429 L 0.51676433 13.467912 A 1.7638888 1.7638888 0 0 0 0.51676433 15.962333 A 1.7638888 1.7638888 0 0 0 3.0111858 15.962333 L 4.2064617 14.767058 A 0.1190398 0.1190398 0 0 1 4.3749268 14.767058 A 0.1190398 0.1190398 0 0 1 4.40955 14.845089 A 0.1190398 0.1190398 0 0 1 4.40955 14.85129 L 4.40955 15.875 L 4.40955 17.638717 L 4.40955 17.640784 L 4.4079997 17.640784 L 4.4100668 26.460401 A 8.8192724 8.8192724 0 0 0 13.231234 35.277434 L 22.0462 35.275367 L 22.046717 35.275367 A 8.8192724 8.8192724 0 0 0 30.867884 26.458334 L 30.869951 17.638717 L 30.867884 17.638717 L 30.867884 15.875 L 30.867884 14.854907 A 0.1190398 0.1190398 0 0 1 30.902507 14.770675 A 0.1190398 0.1190398 0 0 1 31.070972 14.770675 L 32.266765 15.966468 A 1.7638888 1.7638888 0 0 0 34.761186 15.966468 A 1.7638888 1.7638888 0 0 0 34.761186 13.472046 L 34.766871 13.471529 L 25.123015 3.8276734 L 25.121464 3.8292237 L 23.872962 2.5817546 A 8.8192724 8.8192724 0 0 0 17.636133 0 z M 17.317806 3.5367351 A 5.2915637 5.2915637 0 0 1 21.379057 5.076176 L 26.36945 10.064502 L 26.82472 10.519255 A 1.7638888 1.7638888 0 0 1 26.832988 10.527523 L 26.838156 10.533207 A 1.7638888 1.7638888 0 0 1 27.34045 11.754321 A 1.7638888 1.7638888 0 0 1 27.34045 11.754838 A 1.7638888 1.7638888 0 0 1 27.34045 11.755355 A 1.7638888 1.7638888 0 0 1 27.34045 11.755872 A 1.7638888 1.7638888 0 0 1 27.34045 11.756389 A 1.7638888 1.7638888 0 0 1 27.34045 11.756905 A 1.7638888 1.7638888 0 0 1 27.34045 11.757422 A 1.7638888 1.7638888 0 0 1 27.34045 11.757939 A 1.7638888 1.7638888 0 0 1 27.34045 11.758456 A 1.7638888 1.7638888 0 0 1 27.34045 11.758972 A 1.7638888 1.7638888 0 0 1 27.34045 11.759489 A 1.7638888 1.7638888 0 0 1 27.34045 11.760006 A 1.7638888 1.7638888 0 0 1 27.34045 11.760523 A 1.7638888 1.7638888 0 0 1 27.34045 11.761039 A 1.7638888 1.7638888 0 0 1 27.34045 11.761556 A 1.7638888 1.7638888 0 0 1 27.34045 11.762073 A 1.7638888 1.7638888 0 0 1 27.34045 11.76259 A 1.7638888 1.7638888 0 0 1 27.34045 11.763106 A 1.7638888 1.7638888 0 0 1 27.34045 11.763623 A 1.7638888 1.7638888 0 0 1 27.34045 11.76414 A 1.7638888 1.7638888 0 0 1 27.34045 11.764657 A 1.7638888 1.7638888 0 0 1 27.34045 11.765174 A 1.7638888 1.7638888 0 0 1 27.34045 11.76569 A 1.7638888 1.7638888 0 0 1 27.34045 11.766207 L 27.34045 17.638717 L 27.34045 20.28455 L 27.342001 20.28455 L 27.34045 26.457817 A 5.2915637 5.2915637 0 0 1 22.04775 31.747933 L 22.0462 31.747933 L 14.999085 31.746383 L 13.231751 31.745866 L 13.231751 31.750001 L 13.2302 31.750001 A 5.2915637 5.2915637 0 0 1 7.9375001 26.459884 L 7.9359498 20.28455 L 7.9375001 20.28455 L 7.9375001 17.638717 L 7.9375001 15.875 L 7.9375001 11.770341 L 7.9385337 11.770341 A 1.7638888 1.7638888 0 0 1 8.4542645 10.523389 L 8.4532309 10.523389 L 8.9131512 10.063469 L 13.895793 5.0777263 A 5.2915637 5.2915637 0 0 1 17.317806 3.5367351 z " />
  </g>
</svg>
